<svg width="26" height="27" viewBox="0 0 26 27" fill="none" xmlns="http://www.w3.org/2000/svg">
<rect width="26" height="27" fill="#1E1E1E"/>
<path d="M16.8739 2.23448L16.8361 6.40098M8.54094 2.15887L8.50313 6.32536M3.25721 10.4446L22.0064 10.6147M5.39717 4.21376L19.9799 4.34609C21.1304 4.35653 22.0547 5.2977 22.0442 6.44824L21.9119 21.031C21.9015 22.1815 20.9603 23.1058 19.8098 23.0953L5.22702 22.963C4.07648 22.9525 3.15224 22.0114 3.16268 20.8608L3.29501 6.2781C3.30546 5.12755 4.24662 4.20331 5.39717 4.21376Z" stroke="#024023" stroke-width="2" stroke-linecap="round" stroke-linejoin="round"/>
<path d="M10.7988 21.2251L6.76134 16.4751L7.77071 15.2876L10.7988 18.8501L17.2978 11.2043L18.3072 12.3918L10.7988 21.2251Z" fill="#601410"/>
</svg>
