<svg width="225" height="113" viewBox="0 0 225 113" fill="none" xmlns="http://www.w3.org/2000/svg">
<g filter="url(#filter0_d_3_10)">
<path d="M45.377 48.4595C45.8245 49.0861 46.2803 49.8958 46.7441 50.8887C47.2161 51.8734 47.6719 52.9557 48.1113 54.1357C48.5508 55.3158 48.9455 56.5243 49.2954 57.7612C49.6535 58.9901 49.9465 60.1742 50.1743 61.3135C50.4022 62.4528 50.5324 63.466 50.5649 64.353C50.5731 64.7843 50.3778 65 49.979 65H47.0249C46.6424 65 46.443 64.8088 46.4268 64.4263C46.3942 63.5148 46.2477 62.408 45.9873 61.106H39.3223C39.0944 62.3755 38.9642 63.4823 38.9316 64.4263C38.9154 64.8088 38.7078 65 38.3091 65H35.416C35.2695 65 35.1475 64.9593 35.0498 64.8779C34.9521 64.7884 34.9074 64.6379 34.9155 64.4263C34.9562 63.5229 35.0864 62.4976 35.3062 61.3501C35.534 60.1945 35.827 58.9982 36.1851 57.7612C36.5431 56.5243 36.9419 55.3158 37.3813 54.1357C37.8208 52.9476 38.2765 51.8612 38.7485 50.8765C39.2205 49.8918 39.6803 49.0861 40.1279 48.4595C40.3639 48.1258 40.6121 47.8817 40.8726 47.7271C41.1411 47.5724 41.4707 47.4951 41.8613 47.4951H43.6191C44.0179 47.4951 44.3516 47.5724 44.6201 47.7271C44.8887 47.8817 45.141 48.1258 45.377 48.4595ZM42.6182 51.3525C42.0811 52.207 41.5887 53.2284 41.1411 54.4165C40.6935 55.6047 40.307 56.8254 39.9814 58.0786H45.2793C44.9375 56.8254 44.5428 55.6047 44.0952 54.4165C43.6476 53.2284 43.1797 52.207 42.6914 51.3525H42.6182ZM65.2134 53.6719V63.5718C65.2134 65.9481 64.5339 67.7588 63.1748 69.0039C61.8239 70.249 59.9684 70.8716 57.6084 70.8716C56.6318 70.8716 55.8587 70.7983 55.2891 70.6519C54.7194 70.5135 54.2881 70.3792 53.9951 70.249C53.8079 70.1595 53.6859 70.0659 53.6289 69.9683C53.5475 69.8381 53.4539 69.6468 53.3481 69.3945C53.2505 69.1423 53.1569 68.8656 53.0674 68.5645C53.043 68.4505 53.0389 68.3651 53.0552 68.3081C53.0877 68.2267 53.1488 68.1413 53.2383 68.0518C53.3848 67.9053 53.5923 67.7344 53.8608 67.5391C54.1375 67.3438 54.3491 67.2176 54.4956 67.1606C54.6502 67.1037 54.7926 67.1118 54.9229 67.1851C55.1344 67.299 55.4355 67.4251 55.8262 67.5635C56.2249 67.71 56.7824 67.7832 57.4985 67.7832C58.6379 67.7832 59.5656 67.4902 60.2817 66.9043C60.9979 66.3184 61.356 65.415 61.356 64.1943V63.7549H61.3071C61.1281 63.9827 60.8962 64.2147 60.6113 64.4507C60.3265 64.6867 59.9562 64.8861 59.5005 65.0488C59.0529 65.2116 58.4751 65.293 57.7671 65.293C56.5382 65.293 55.5291 65.0285 54.7397 64.4995C53.9585 63.9624 53.3807 63.2259 53.0063 62.29C52.6401 61.3542 52.457 60.2881 52.457 59.0918C52.457 57.7816 52.6727 56.6056 53.104 55.564C53.5353 54.5223 54.2596 53.7004 55.2769 53.0981C56.2941 52.4878 57.6857 52.1826 59.4517 52.1826C60.5096 52.1826 61.3966 52.2599 62.1128 52.4146C62.8371 52.5692 63.4434 52.7604 63.9316 52.9883C64.4199 53.2161 64.8472 53.444 65.2134 53.6719ZM59.3174 55.1367C58.3734 55.1367 57.6532 55.4541 57.1567 56.0889C56.6603 56.7236 56.4121 57.7083 56.4121 59.043C56.4121 61.1344 57.2747 62.1802 59 62.1802C59.6755 62.1802 60.1922 62.0418 60.5503 61.7651C60.9084 61.4884 61.1769 61.1385 61.356 60.7153V55.6738C61.1769 55.5436 60.9246 55.4215 60.5991 55.3076C60.2736 55.1937 59.8464 55.1367 59.3174 55.1367ZM74.6372 65.3052C73.2619 65.3052 72.0656 65.0854 71.0483 64.646C70.0311 64.1984 69.2417 63.5067 68.6802 62.5708C68.1187 61.6349 67.8379 60.4264 67.8379 58.9453C67.8379 56.7236 68.4076 55.0431 69.5469 53.9038C70.6862 52.7645 72.1999 52.1948 74.0879 52.1948C75.3167 52.1948 76.3543 52.4146 77.2007 52.854C78.0552 53.2935 78.7021 53.8997 79.1416 54.6729C79.5892 55.446 79.813 56.3289 79.813 57.3218C79.813 58.2902 79.5648 58.9657 79.0684 59.3481C78.5719 59.7306 77.8477 59.9219 76.8955 59.9219H71.6587C71.7238 60.7601 72.029 61.3989 72.5742 61.8384C73.1276 62.2778 73.8763 62.4976 74.8203 62.4976C75.569 62.4976 76.1672 62.3877 76.6147 62.168C77.0705 61.9401 77.3879 61.7611 77.5669 61.6309C77.7215 61.5169 77.8965 61.464 78.0918 61.4722C78.2464 61.4722 78.4661 61.5047 78.751 61.5698C79.0439 61.6268 79.3328 61.7367 79.6177 61.8994C79.8211 62.0052 79.9229 62.1517 79.9229 62.3389C79.9229 62.4447 79.9025 62.5952 79.8618 62.7905C79.8374 62.9045 79.7967 63.0713 79.7397 63.291C79.6828 63.5026 79.6095 63.702 79.52 63.8892C79.4712 63.9787 79.3939 64.0641 79.2881 64.1455C79.1253 64.2594 78.8608 64.41 78.4946 64.5972C78.1366 64.7843 77.6442 64.9471 77.0176 65.0854C76.391 65.2319 75.5975 65.3052 74.6372 65.3052ZM71.6343 57.4194H75.6138C76.0288 57.4194 76.2363 57.2282 76.2363 56.8457C76.2363 56.2679 76.0532 55.7837 75.687 55.3931C75.3289 54.9943 74.7878 54.7949 74.0635 54.7949C73.2741 54.7949 72.6922 55.0472 72.3179 55.5518C71.9517 56.0563 71.7238 56.6789 71.6343 57.4194ZM94.5835 57.2241V64.353C94.5835 64.5972 94.5306 64.7681 94.4248 64.8657C94.3271 64.9552 94.1562 65 93.9121 65H91.3975C91.1533 65 90.9784 64.9552 90.8726 64.8657C90.7749 64.7681 90.7261 64.5972 90.7261 64.353V57.8589C90.7261 56.9718 90.5389 56.3249 90.1646 55.918C89.7902 55.5111 89.2816 55.3076 88.6387 55.3076C87.9958 55.3076 87.4993 55.446 87.1494 55.7227C86.8076 55.9993 86.5431 56.3493 86.356 56.7725V64.353C86.356 64.5972 86.3031 64.7681 86.1973 64.8657C86.0996 64.9552 85.9287 65 85.6846 65H83.1699C82.9258 65 82.7508 64.9552 82.645 64.8657C82.5474 64.7681 82.4985 64.5972 82.4985 64.353V54.1235C82.4985 53.9282 82.5392 53.7777 82.6206 53.6719C82.7915 53.444 82.995 53.2121 83.231 52.9761C83.4751 52.7401 83.7721 52.4878 84.1221 52.2192C84.2279 52.1379 84.3296 52.0972 84.4272 52.0972C84.5168 52.0972 84.6185 52.1379 84.7324 52.2192C85.0742 52.4878 85.3672 52.7441 85.6113 52.9883C85.8555 53.2324 86.0711 53.4847 86.2583 53.7451H86.3193C86.4577 53.5661 86.6652 53.3586 86.9419 53.1226C87.2186 52.8784 87.6051 52.6628 88.1016 52.4756C88.6061 52.2884 89.249 52.1948 90.0303 52.1948C90.7952 52.1948 91.5236 52.3494 92.2153 52.6587C92.9071 52.9679 93.4727 53.4888 93.9121 54.2212C94.3597 54.9536 94.5835 55.9546 94.5835 57.2241ZM102.298 65.3052C101.216 65.3052 100.292 65.0407 99.5273 64.5117C98.7705 63.9746 98.1927 63.2381 97.7939 62.3022C97.4033 61.3582 97.208 60.2718 97.208 59.043C97.208 57.4235 97.4928 56.1133 98.0625 55.1123C98.6403 54.1032 99.45 53.3626 100.492 52.8906C101.542 52.4186 102.778 52.1826 104.203 52.1826C104.691 52.1826 105.094 52.207 105.411 52.2559C105.737 52.3047 105.969 52.3494 106.107 52.3901V47.8369C106.107 47.6416 106.148 47.491 106.229 47.3853C106.571 46.9377 107.071 46.4535 107.73 45.9326C107.844 45.8512 107.946 45.8105 108.036 45.8105C108.141 45.8105 108.243 45.8512 108.341 45.9326C108.691 46.2012 108.984 46.4535 109.22 46.6895C109.464 46.9255 109.671 47.1574 109.842 47.3853C109.924 47.491 109.964 47.6416 109.964 47.8369V64.4385C109.964 64.5931 109.911 64.7274 109.806 64.8413C109.7 64.9471 109.566 65 109.403 65H107.584C107.454 65 107.336 64.9837 107.23 64.9512C107.132 64.9105 107.039 64.8372 106.949 64.7314L106.192 63.7549H106.107C106.001 63.9176 105.81 64.1252 105.533 64.3774C105.265 64.6216 104.87 64.8372 104.349 65.0244C103.836 65.2116 103.153 65.3052 102.298 65.3052ZM103.482 62.1802C104.215 62.1802 104.789 62.0418 105.204 61.7651C105.627 61.4884 105.928 61.1385 106.107 60.7153V55.6006C105.977 55.5192 105.761 55.4215 105.46 55.3076C105.159 55.1937 104.736 55.1367 104.19 55.1367C103.181 55.1367 102.424 55.4663 101.92 56.1255C101.415 56.7847 101.163 57.6717 101.163 58.7866C101.163 59.9422 101.375 60.7967 101.798 61.3501C102.221 61.9035 102.783 62.1802 103.482 62.1802ZM116.495 65.3052C115.299 65.3052 114.347 64.9715 113.639 64.3042C112.939 63.6287 112.589 62.701 112.589 61.521C112.589 60.9106 112.699 60.3451 112.918 59.8242C113.146 59.2952 113.537 58.8314 114.09 58.4326C114.652 58.0257 115.433 57.7002 116.434 57.4561C117.443 57.2119 118.729 57.0695 120.292 57.0288C120.292 56.2882 120.104 55.7552 119.73 55.4297C119.364 55.1042 118.81 54.9414 118.07 54.9414C117.403 54.9414 116.857 55.0553 116.434 55.2832C116.011 55.5111 115.746 55.6657 115.641 55.7471C115.527 55.8447 115.388 55.8813 115.226 55.8569C115.006 55.8244 114.77 55.7674 114.518 55.686C114.273 55.6047 114.009 55.5111 113.724 55.4053C113.683 55.389 113.639 55.3646 113.59 55.332C113.541 55.2913 113.513 55.2344 113.504 55.1611C113.504 55.1204 113.508 55.0716 113.517 55.0146C113.525 54.9495 113.545 54.8356 113.578 54.6729C113.61 54.5101 113.659 54.3107 113.724 54.0747C113.789 53.8306 113.85 53.6434 113.907 53.5132C113.98 53.3748 114.103 53.2446 114.273 53.1226C114.412 53.0086 114.831 52.8255 115.531 52.5732C116.231 52.321 117.244 52.1948 118.57 52.1948C122.224 52.1948 124.051 53.973 124.051 57.5293V64.4385C124.051 64.5931 124.007 64.7274 123.917 64.8413C123.836 64.9471 123.693 65 123.49 65H121.659C121.528 65 121.41 64.9837 121.305 64.9512C121.207 64.9105 121.113 64.8372 121.024 64.7314L120.267 63.7549H120.182C119.807 64.3001 119.303 64.6948 118.668 64.939C118.041 65.1831 117.317 65.3052 116.495 65.3052ZM117.838 62.4731C118.587 62.4731 119.152 62.2819 119.535 61.8994C119.917 61.5169 120.161 61.1222 120.267 60.7153V59.3604C119.136 59.3604 118.285 59.4499 117.716 59.6289C117.154 59.7998 116.78 60.0277 116.593 60.3125C116.406 60.5892 116.312 60.8903 116.312 61.2158C116.312 61.6878 116.458 62.0174 116.751 62.2046C117.044 62.3836 117.407 62.4731 117.838 62.4731ZM139.31 57.2241V64.353C139.31 64.5972 139.257 64.7681 139.151 64.8657C139.054 64.9552 138.883 65 138.639 65H136.124C135.88 65 135.705 64.9552 135.599 64.8657C135.501 64.7681 135.453 64.5972 135.453 64.353V57.8589C135.453 56.9718 135.265 56.3249 134.891 55.918C134.517 55.5111 134.008 55.3076 133.365 55.3076C132.722 55.3076 132.226 55.446 131.876 55.7227C131.534 55.9993 131.27 56.3493 131.083 56.7725V64.353C131.083 64.5972 131.03 64.7681 130.924 64.8657C130.826 64.9552 130.655 65 130.411 65H127.896C127.652 65 127.477 64.9552 127.372 64.8657C127.274 64.7681 127.225 64.5972 127.225 64.353V54.1235C127.225 53.9282 127.266 53.7777 127.347 53.6719C127.518 53.444 127.722 53.2121 127.958 52.9761C128.202 52.7401 128.499 52.4878 128.849 52.2192C128.954 52.1379 129.056 52.0972 129.154 52.0972C129.243 52.0972 129.345 52.1379 129.459 52.2192C129.801 52.4878 130.094 52.7441 130.338 52.9883C130.582 53.2324 130.798 53.4847 130.985 53.7451H131.046C131.184 53.5661 131.392 53.3586 131.668 53.1226C131.945 52.8784 132.332 52.6628 132.828 52.4756C133.333 52.2884 133.976 52.1948 134.757 52.1948C135.522 52.1948 136.25 52.3494 136.942 52.6587C137.634 52.9679 138.199 53.4888 138.639 54.2212C139.086 54.9536 139.31 55.9546 139.31 57.2241ZM147.025 65.3052C145.943 65.3052 145.019 65.0407 144.254 64.5117C143.497 63.9746 142.919 63.2381 142.521 62.3022C142.13 61.3582 141.935 60.2718 141.935 59.043C141.935 57.4235 142.219 56.1133 142.789 55.1123C143.367 54.1032 144.177 53.3626 145.218 52.8906C146.268 52.4186 147.505 52.1826 148.929 52.1826C149.417 52.1826 149.82 52.207 150.138 52.2559C150.463 52.3047 150.695 52.3494 150.833 52.3901V47.8369C150.833 47.6416 150.874 47.491 150.956 47.3853C151.297 46.9377 151.798 46.4535 152.457 45.9326C152.571 45.8512 152.673 45.8105 152.762 45.8105C152.868 45.8105 152.97 45.8512 153.067 45.9326C153.417 46.2012 153.71 46.4535 153.946 46.6895C154.19 46.9255 154.398 47.1574 154.569 47.3853C154.65 47.491 154.691 47.6416 154.691 47.8369V64.4385C154.691 64.5931 154.638 64.7274 154.532 64.8413C154.426 64.9471 154.292 65 154.129 65H152.311C152.18 65 152.062 64.9837 151.957 64.9512C151.859 64.9105 151.765 64.8372 151.676 64.7314L150.919 63.7549H150.833C150.728 63.9176 150.536 64.1252 150.26 64.3774C149.991 64.6216 149.597 64.8372 149.076 65.0244C148.563 65.2116 147.879 65.3052 147.025 65.3052ZM148.209 62.1802C148.941 62.1802 149.515 62.0418 149.93 61.7651C150.353 61.4884 150.654 61.1385 150.833 60.7153V55.6006C150.703 55.5192 150.488 55.4215 150.187 55.3076C149.885 55.1937 149.462 55.1367 148.917 55.1367C147.908 55.1367 147.151 55.4663 146.646 56.1255C146.142 56.7847 145.89 57.6717 145.89 58.7866C145.89 59.9422 146.101 60.7967 146.524 61.3501C146.948 61.9035 147.509 62.1802 148.209 62.1802ZM163.98 65.3052C161.93 65.3052 160.306 64.7599 159.11 63.6694C157.914 62.5789 157.315 60.9554 157.315 58.7988C157.315 56.5853 157.934 54.9333 159.171 53.8428C160.416 52.7441 162.076 52.1948 164.151 52.1948C166.153 52.1948 167.757 52.736 168.961 53.8184C170.165 54.8926 170.768 56.4795 170.768 58.5791C170.768 60.7682 170.165 62.4365 168.961 63.584C167.757 64.7314 166.096 65.3052 163.98 65.3052ZM164.103 62.3511C164.998 62.3511 165.673 62.0744 166.129 61.521C166.585 60.9595 166.812 60.0033 166.812 58.6523C166.812 57.3665 166.581 56.4632 166.117 55.9424C165.661 55.4134 164.981 55.1489 164.078 55.1489C163.207 55.1489 162.52 55.4338 162.015 56.0034C161.519 56.5649 161.271 57.4805 161.271 58.75C161.271 60.0765 161.507 61.0083 161.979 61.5454C162.459 62.0825 163.167 62.3511 164.103 62.3511Z" fill="#590202"/>
<path d="M178.57 55.0757C178.839 55.4517 179.112 55.9375 179.391 56.5332C179.674 57.124 179.947 57.7734 180.211 58.4814C180.475 59.1895 180.711 59.9146 180.921 60.6567C181.136 61.394 181.312 62.1045 181.449 62.7881C181.585 63.4717 181.664 64.0796 181.683 64.6118C181.688 64.8706 181.571 65 181.332 65H179.559C179.33 65 179.21 64.8853 179.2 64.6558C179.181 64.1089 179.093 63.4448 178.937 62.6636H174.938C174.801 63.4253 174.723 64.0894 174.703 64.6558C174.693 64.8853 174.569 65 174.33 65H172.594C172.506 65 172.433 64.9756 172.374 64.9268C172.315 64.873 172.289 64.7827 172.293 64.6558C172.318 64.1138 172.396 63.4985 172.528 62.8101C172.665 62.1167 172.84 61.3989 173.055 60.6567C173.27 59.9146 173.509 59.1895 173.773 58.4814C174.037 57.7686 174.31 57.1167 174.593 56.5259C174.876 55.9351 175.152 55.4517 175.421 55.0757C175.562 54.8755 175.711 54.729 175.868 54.6362C176.029 54.5435 176.227 54.4971 176.461 54.4971H177.516C177.755 54.4971 177.955 54.5435 178.116 54.6362C178.277 54.729 178.429 54.8755 178.57 55.0757ZM176.915 56.8115C176.593 57.3242 176.297 57.937 176.029 58.6499C175.76 59.3628 175.528 60.0952 175.333 60.8472H178.512C178.307 60.0952 178.07 59.3628 177.801 58.6499C177.533 57.937 177.252 57.3242 176.959 56.8115H176.915ZM187.381 61.4917C187.254 61.4917 187.147 61.46 187.059 61.3965C186.966 61.333 186.856 61.2427 186.729 61.1255C186.603 61.0083 186.461 60.8643 186.305 60.6934C186.246 60.625 186.217 60.564 186.217 60.5103C186.217 60.4565 186.246 60.3955 186.305 60.3271C186.607 59.9854 186.883 59.7339 187.132 59.5728C187.191 59.5337 187.274 59.5142 187.381 59.5142C187.713 59.5142 187.999 59.3896 188.238 59.1406C188.482 58.8916 188.6 58.4888 188.59 57.9321C188.585 57.3315 188.436 56.9116 188.143 56.6724C187.855 56.4331 187.459 56.3135 186.957 56.3135H186.605C186.283 56.3135 186.063 56.3818 185.946 56.5186C185.829 56.6553 185.77 56.8896 185.77 57.2217V64.6118C185.77 64.7583 185.738 64.8608 185.675 64.9194C185.616 64.9731 185.514 65 185.367 65H183.807C183.661 65 183.556 64.9731 183.492 64.9194C183.434 64.8608 183.404 64.7583 183.404 64.6118V56.46C183.404 55.9717 183.448 55.5859 183.536 55.3027C183.629 55.0146 183.805 54.8096 184.063 54.6875C184.327 54.5605 184.71 54.4971 185.213 54.4971H186.957C188.358 54.4971 189.396 54.7729 190.069 55.3247C190.743 55.8716 191.08 56.7114 191.08 57.8442C191.08 58.6938 190.902 59.3872 190.545 59.9243C190.194 60.4614 189.735 60.8569 189.168 61.1108C188.607 61.3647 188.011 61.4917 187.381 61.4917ZM196.595 61.4917C196.468 61.4917 196.361 61.46 196.273 61.3965C196.18 61.333 196.07 61.2427 195.943 61.1255C195.816 61.0083 195.675 60.8643 195.519 60.6934C195.46 60.625 195.431 60.564 195.431 60.5103C195.431 60.4565 195.46 60.3955 195.519 60.3271C195.821 59.9854 196.097 59.7339 196.346 59.5728C196.405 59.5337 196.488 59.5142 196.595 59.5142C196.927 59.5142 197.213 59.3896 197.452 59.1406C197.696 58.8916 197.813 58.4888 197.804 57.9321C197.799 57.3315 197.65 56.9116 197.357 56.6724C197.069 56.4331 196.673 56.3135 196.17 56.3135H195.819C195.497 56.3135 195.277 56.3818 195.16 56.5186C195.042 56.6553 194.984 56.8896 194.984 57.2217V64.6118C194.984 64.7583 194.952 64.8608 194.889 64.9194C194.83 64.9731 194.728 65 194.581 65H193.021C192.875 65 192.77 64.9731 192.706 64.9194C192.647 64.8608 192.618 64.7583 192.618 64.6118V56.46C192.618 55.9717 192.662 55.5859 192.75 55.3027C192.843 55.0146 193.019 54.8096 193.277 54.6875C193.541 54.5605 193.924 54.4971 194.427 54.4971H196.17C197.572 54.4971 198.609 54.7729 199.283 55.3247C199.957 55.8716 200.294 56.7114 200.294 57.8442C200.294 58.6938 200.116 59.3872 199.759 59.9243C199.408 60.4614 198.949 60.8569 198.382 61.1108C197.821 61.3647 197.225 61.4917 196.595 61.4917Z" fill="#302E2E"/>
<path d="M25.4991 46.7876L25.4689 50.1208M18.8328 46.7271L18.8025 50.0603M14.6058 53.3557L29.6051 53.4918M16.3177 48.371L27.9839 48.4769C28.9044 48.4852 29.6437 49.2381 29.6354 50.1586L29.5295 61.8248C29.5212 62.7452 28.7682 63.4846 27.8478 63.4762L16.1816 63.3704C15.2612 63.362 14.5218 62.6091 14.5301 61.6887L14.636 50.0225C14.6444 49.102 15.3973 48.3626 16.3177 48.371Z" stroke="#024023" stroke-width="2" stroke-linecap="round" stroke-linejoin="round"/>
<path d="M21.1729 61.25L18.0854 57.6875L18.8573 56.7969L21.1729 59.4688L26.1427 53.7344L26.9146 54.625L21.1729 61.25Z" fill="#601410"/>
</g>
<defs>
<filter id="filter0_d_3_10" x="0" y="0" width="225" height="113" filterUnits="userSpaceOnUse" color-interpolation-filters="sRGB">
<feFlood flood-opacity="0" result="BackgroundImageFix"/>
<feColorMatrix in="SourceAlpha" type="matrix" values="0 0 0 0 0 0 0 0 0 0 0 0 0 0 0 0 0 0 127 0" result="hardAlpha"/>
<feOffset dy="4"/>
<feGaussianBlur stdDeviation="2"/>
<feComposite in2="hardAlpha" operator="out"/>
<feColorMatrix type="matrix" values="0 0 0 0 0 0 0 0 0 0 0 0 0 0 0 0 0 0 0.25 0"/>
<feBlend mode="normal" in2="BackgroundImageFix" result="effect1_dropShadow_3_10"/>
<feBlend mode="normal" in="SourceGraphic" in2="effect1_dropShadow_3_10" result="shape"/>
</filter>
</defs>
</svg>
